<?xml version="1.0" standalone="no"?>
<!DOCTYPE svg PUBLIC "-//W3C//DTD SVG 20010904//EN"
 "http://www.w3.org/TR/2001/REC-SVG-20010904/DTD/svg10.dtd">
<svg version="1.0" xmlns="http://www.w3.org/2000/svg"
 width="1138.000000pt" height="1280.000000pt" viewBox="0 0 1138.000000 1280.000000"
 preserveAspectRatio="xMidYMid meet">
<metadata>
Created by potrace 1.15, written by Peter Selinger 2001-2017
</metadata>
<g transform="translate(0.000000,1280.000000) scale(0.100000,-0.100000)"
fill="#000000" stroke="none">
<path d="M4712 12790 c-450 -57 -889 -320 -1171 -700 -226 -304 -311 -595
-311 -1060 0 -445 113 -773 357 -1040 175 -192 377 -335 725 -515 399 -206
781 -351 1513 -575 403 -123 647 -203 805 -265 437 -170 667 -359 756 -620 72
-213 28 -742 -92 -1105 -38 -113 -146 -323 -222 -430 -87 -123 -259 -295 -397
-398 -119 -89 -317 -195 -472 -252 l-93 -34 0 -327 0 -326 88 14 c709 112
1366 535 1781 1148 171 252 292 521 366 810 86 339 92 746 15 1038 -129 489
-492 853 -1085 1087 -318 126 -582 192 -1205 300 -355 62 -592 118 -850 202
-912 295 -1360 781 -1361 1472 0 558 309 1005 763 1101 94 21 314 21 430 0
265 -46 453 -150 612 -338 85 -102 161 -263 181 -382 8 -50 -8 -73 -105 -150
-151 -120 -180 -170 -188 -310 -7 -146 39 -304 133 -451 82 -128 274 -383 343
-456 84 -88 142 -121 208 -120 126 3 224 135 297 402 14 52 49 178 77 280 84
304 87 394 22 534 -41 88 -84 132 -173 176 -96 49 -120 79 -163 206 -78 229
-139 359 -235 502 -204 303 -489 492 -848 562 -124 24 -384 34 -501 20z"/>
<path d="M0 8237 c0 -45 59 -145 115 -194 152 -135 367 -219 625 -243 371 -34
708 -133 1069 -315 248 -124 433 -245 750 -493 385 -301 676 -506 886 -624
374 -211 777 -364 1178 -447 228 -48 388 -69 740 -97 l77 -6 0 -1003 0 -1003
28 -6 c41 -10 395 -20 436 -12 l36 7 0 1058 0 1057 103 29 c311 86 581 257
774 488 211 253 341 551 405 927 24 144 36 471 19 550 -24 115 -99 235 -194
310 l-50 40 -3498 0 -3499 0 0 -23z"/>
<path d="M8518 8254 c-4 -3 -2 -20 3 -37 5 -18 19 -81 31 -142 19 -96 22 -143
23 -375 0 -209 -4 -289 -18 -378 -33 -206 -98 -440 -168 -606 -16 -37 -29 -70
-29 -72 0 -7 125 88 403 303 388 301 550 409 808 538 361 182 698 281 1069
315 258 24 473 108 625 243 56 49 115 149 115 194 l0 23 -1428 0 c-786 0
-1431 -3 -1434 -6z"/>
<path d="M5200 5753 c-282 -44 -548 -170 -761 -360 -252 -224 -409 -490 -455
-772 -27 -164 -2 -428 57 -606 117 -350 403 -612 869 -794 217 -86 433 -140
639 -161 911 -92 1925 400 2123 1030 20 64 23 95 23 215 -1 127 -3 148 -29
220 -34 99 -55 134 -125 208 -72 76 -144 119 -272 161 -328 109 -581 99 -1121
-45 l-38 -10 0 -230 c0 -186 3 -230 13 -226 54 21 198 41 292 41 134 1 194
-14 245 -63 49 -46 65 -102 65 -216 -1 -100 -23 -163 -84 -240 -97 -120 -307
-217 -571 -262 -120 -21 -489 -24 -600 -5 -272 47 -454 126 -585 257 -129 128
-169 259 -147 482 21 215 74 353 178 463 74 78 152 126 268 166 l86 29 0 362
0 363 -22 -1 c-13 -1 -34 -3 -48 -6z"/>
<path d="M5154 4442 c-56 -37 -137 -96 -179 -131 l-77 -63 6 -46 c9 -68 43
-130 105 -193 85 -85 92 -87 143 -41 24 21 60 50 81 65 l37 28 0 225 c0 123
-3 224 -7 224 -5 -1 -54 -31 -109 -68z"/>
<path d="M4361 3247 c-26 -130 -35 -247 -35 -432 0 -188 2 -205 27 -288 113
-368 424 -634 932 -796 253 -81 447 -110 1280 -191 286 -28 315 -33 371 -59
34 -16 79 -44 100 -64 72 -64 114 -87 160 -87 33 0 46 5 58 22 21 30 20 56 -6
125 -52 141 -262 281 -533 356 -173 48 -261 63 -805 138 -304 41 -485 104
-639 224 -221 169 -331 400 -369 768 l-7 69 -87 33 c-118 46 -256 116 -355
180 l-82 54 -10 -52z"/>
<path d="M5440 2598 l0 -325 78 -36 c42 -19 102 -42 132 -51 65 -18 251 -56
274 -56 14 0 16 40 16 390 l0 390 -212 0 c-117 0 -230 3 -250 6 l-38 7 0 -325z"/>
<path d="M5435 1222 c0 -317 -1 -322 -66 -397 -88 -100 -239 -161 -559 -225
-216 -44 -339 -76 -450 -117 -97 -36 -217 -100 -240 -127 -33 -41 -197 -69
-575 -101 -260 -22 -377 -50 -528 -128 -81 -41 -137 -88 -137 -113 0 -12 386
-14 2810 -14 2424 0 2810 2 2810 14 0 40 -146 131 -280 175 -118 38 -192 50
-435 71 -132 12 -273 26 -314 31 -92 13 -195 44 -211 65 -23 27 -143 91 -240
127 -111 41 -234 73 -450 117 -320 64 -471 125 -559 225 -63 72 -65 84 -69
363 -3 205 -6 252 -18 252 -33 0 -327 41 -392 55 -40 8 -79 15 -85 15 -9 0
-12 -73 -12 -288z"/>
</g>
</svg>
